<svg xmlns="http://www.w3.org/2000/svg" viewBox="0 0 64 64" fill="none" aria-labelledby="title desc" role="img">
  <title id="title">Brand Book Gen Bot icon</title>
  <desc id="desc">A compact brand book style icon with a document and folded corner.</desc>
  <rect x="6" y="6" width="52" height="52" rx="14" fill="#d9424f"/>
  <rect x="16" y="15" width="27" height="32" rx="3" fill="#ffffff"/>
  <path d="M36 15 L41 20L36 20Z" fill="#ffffff"/>
  <path d="M36 15h5v5h-5z" fill="#d9424f"/>
  <rect x="20" y="20" width="14" height="2" rx="1" fill="#d9424f"/>
  <rect x="20" y="24" width="18" height="2" rx="1" fill="#d9424f"/>
  <rect x="20" y="28" width="15" height="2" rx="1" fill="#d9424f"/>
  <rect x="20" y="32" width="10" height="2" rx="1" fill="#d9424f"/>
  <path d="M20 39C20 38.4477 20.4477 38 21 38H41C41.5523 38 42 38.4477 42 39C42 39.5523 41.5523 40 41 40H21C20.4477 40 20 39.5523 20 39Z" fill="#1f2b45"/>
</svg>
