<svg xmlns="http://www.w3.org/2000/svg" viewBox="0 0 64 64" fill="none" role="img" aria-labelledby="title desc">
  <title id="title">Sora Prompting Coach icon</title>
  <desc id="desc">Simple controller-like icon for a scene-planning assistant.</desc>
  <rect x="6" y="6" width="52" height="52" rx="14" fill="#1d2440"/>
  <rect x="14" y="14" width="36" height="26" rx="4" fill="#f8fbff"/>
  <rect x="18" y="18" width="8" height="2.3" rx="1.2" fill="#3c4cf0"/>
  <rect x="18" y="22" width="12" height="2.3" rx="1.2" fill="#27b3b3"/>
  <rect x="18" y="26" width="18" height="2.3" rx="1.2" fill="#2d63ff"/>
  <rect x="18" y="30" width="14" height="2.3" rx="1.2" fill="#27b3b3"/>
  <path d="M30 39 C34 39 37 40 40 42V43C37 45 34 46 30 46C22 46 16 40 16 32C16 24 22 18 30 18C38 18 44 24 44 32" stroke="#c2ccff" stroke-width="2.2" stroke-linecap="round" stroke-linejoin="round"/>
  <circle cx="42" cy="42" r="5" fill="#27b3b3"/>
  <circle cx="42" cy="42" r="1.7" fill="#f8fbff"/>
  <path d="M46 42H48M42 46V48M46 38V40M38 42H40M44.5 38.7L45.8 37.4M44.5 45.3L45.8 46.6M39.5 38.7L38.2 37.4M39.5 45.3L38.2 46.6" stroke="#d9e3ff" stroke-width="1" stroke-linecap="round"/>
</svg>
